Coordinates
version=1
nRows=40
nColumns=38
inDegrees=no

Units are S.I. units (second, meters, Newtons, ...)
If the header above contains a line with 'inDegrees', this indicates whether rotational values are in degrees (yes) or radians (no).

endheader
time	pelvis_tilt	pelvis_list	pelvis_rotation	pelvis_tx	pelvis_ty	pelvis_tz	hip_flexion_r	hip_adduction_r	hip_rotation_r	knee_angle_r	ankle_angle_r	subtalar_angle_r	mtp_angle_r	hip_flexion_l	hip_adduction_l	hip_rotation_l	knee_angle_l	ankle_angle_l	subtalar_angle_l	mtp_angle_l	lumbar_extension	lumbar_bending	lumbar_rotation	arm_flex_r	arm_add_r	arm_rot_r	elbow_flex_r	pro_sup_r	wrist_flex_r	wrist_dev_r	arm_flex_l	arm_add_l	arm_rot_l	elbow_flex_l	pro_sup_l	wrist_flex_l	wrist_dev_l
7.98	-2.20053	1.53476	0.108974	0.982802	-0.443987	0.955687	0.284491	-0.210039	-0.0045897	0.171575	-0.15189	0	0	-0.0964996	-0.0695877	-0.177587	0.199257	0.18408	0	0	0.0316333	0.0492379	-0.219782	-0.286284	0.0625196	-0.94171	0.400786	0.289922	0	0	-0.15644	-0.117007	0.0440237	0.508743	1.36107	0	0
7.99	-2.19231	1.53633	0.106715	0.979362	-0.445896	0.955188	0.281549	-0.216647	-0.00431917	0.169746	-0.160142	0	0	-0.0988522	-0.0715577	-0.172884	0.201378	0.185888	0	0	0.0319924	0.0470749	-0.215734	-0.284352	0.0609348	-0.93746	0.415519	0.295829	0	0	-0.153329	-0.117345	0.046617	0.49736	1.36404	0	0
8	-2.18874	1.53803	0.109288	0.975794	-0.447721	0.954741	0.278759	-0.223064	-0.00379733	0.168737	-0.168544	0	0	-0.101366	-0.0735004	-0.16724	0.202713	0.187326	0	0	0.0321093	0.04217	-0.217982	-0.279552	0.0559103	-0.918841	0.425442	0.303816	0	0	-0.155353	-0.117722	0.0364595	0.4933	1.37696	0	0
8.01	-2.14832	1.53993	0.0744613	0.972074	-0.449501	0.954301	0.275129	-0.229168	-0.00229422	0.169447	-0.175366	0	0	-0.105963	-0.0752645	-0.161776	0.202722	0.18853	0	0	0.0328436	0.0422997	-0.205597	-0.283348	0.0559452	-0.921455	0.448051	0.31097	0	0	-0.145956	-0.119119	0.0545335	0.474037	1.37489	0	0
8.02	-2.22707	1.5414	0.159409	0.968196	-0.451344	0.953711	0.275542	-0.234956	-0.000231394	0.171842	-0.181404	0	0	-0.106441	-0.0773151	-0.155861	0.20285	0.189226	0	0	0.0371971	0.0374141	-0.209119	-0.278874	0.0487812	-0.903224	0.45272	0.319994	0	0	-0.151212	-0.118915	0.0483176	0.465146	1.35869	0	0
8.03	-2.22453	1.54316	0.163569	0.964385	-0.452829	0.95319	0.273846	-0.240456	0.00282651	0.176069	-0.185728	0	0	-0.108825	-0.0796927	-0.149825	0.203723	0.190255	0	0	0.0432699	0.0331116	-0.223746	-0.327306	0.0367979	-0.348171	0.521565	1.5708	0	0	-0.162955	-0.120259	0.0475894	0.461946	1.3082	0	0
8.04	-2.27311	1.54494	0.218697	0.96034	-0.454208	0.952556	0.273553	-0.245522	0.00802303	0.181052	-0.1887	0	0	-0.109463	-0.0822458	-0.144808	0.20527	0.191482	0	0	0.045227	0.0301153	-0.220466	-0.324848	0.0307186	-0.339683	0.525578	1.5708	0	0	-0.161414	-0.120255	0.0362646	0.451547	1.33753	0	0
8.05	-2.3648	1.54605	0.317066	0.956118	-0.455626	0.951837	0.273425	-0.249642	0.0145986	0.185437	-0.190953	0	0	-0.109193	-0.0853438	-0.139706	0.206795	0.192536	0	0	0.0483369	0.0276675	-0.214214	-0.323786	0.025478	-0.341085	0.530081	1.5708	0	0	-0.160109	-0.125456	0.0609539	0.445643	1.29089	0	0
8.06	-2.49631	1.54646	0.454852	0.951668	-0.457053	0.951052	0.27362	-0.252902	0.0228244	0.1894	-0.192986	0	0	-0.10843	-0.0887479	-0.13528	0.207654	0.193916	0	0	0.0516568	0.0253111	-0.210263	-0.321707	0.0194802	-0.340892	0.532659	1.5708	0	0	-0.159492	-0.124923	0.0452211	0.436443	1.32435	0	0
8.07	-2.62221	1.54696	0.587021	0.947078	-0.458308	0.95029	0.272935	-0.255809	0.0319669	0.192982	-0.195198	0	0	-0.108223	-0.0920442	-0.130966	0.207984	0.195085	0	0	0.0549703	0.0223622	-0.203591	-0.320939	0.0151562	-0.343655	0.535413	1.5708	0	0	-0.16023	-0.131966	0.0725544	0.437716	1.27132	0	0
8.08	-0.949657	1.54875	-1.07881	0.942873	-0.455749	0.951622	0.239469	-0.264425	0.0449758	0.199822	-0.195547	0	0	-0.141941	-0.0890205	-0.124133	0.208422	0.192669	0	0	0.00242271	0.00959624	-0.198957	-0.300426	0.0195974	-0.343174	0.540559	1.5708	0	0	-0.145473	-0.147085	0.0707865	0.44846	1.28863	0	0
8.09	-0.9142	1.55125	-1.10898	0.937877	-0.456894	0.950953	0.236801	-0.26509	0.0565621	0.201395	-0.201523	0	0	-0.143368	-0.0928014	-0.119712	0.206947	0.192127	0	0	0.00455035	0.00743815	-0.194104	-0.299273	0.0145486	-0.344661	0.543792	1.5708	0	0	-0.147202	-0.149097	0.0691198	0.44429	1.28225	0	0
8.1	-0.861563	1.55415	-1.15544	0.932694	-0.457986	0.950177	0.233947	-0.265914	0.0651531	0.202223	-0.206126	0	0	-0.143845	-0.096837	-0.115283	0.206428	0.191963	0	0	0.00600789	0.00456072	-0.190474	-0.29781	0.0100597	-0.347297	0.546112	1.5708	0	0	-0.149651	-0.151631	0.0618125	0.442529	1.28945	0	0
8.11	-0.724557	1.55757	-1.28562	0.927387	-0.459091	0.949326	0.231448	-0.268199	0.0670794	0.203182	-0.204849	0	0	-0.143885	-0.09998	-0.110738	0.205924	0.191408	0	0	0.00883687	0.000283402	-0.185602	-0.297143	0.00648779	-0.353934	0.548223	1.5708	0	0	-0.151552	-0.156048	0.0623088	0.442396	1.28833	0	0
8.12	-0.505366	1.56061	-1.49749	0.921952	-0.460173	0.948499	0.229394	-0.270103	0.0621026	0.206604	-0.196395	0	0	-0.14349	-0.103405	-0.105866	0.205997	0.190347	0	0	0.0123184	-0.00401155	-0.179952	-0.297264	0.00383265	-0.363669	0.550197	1.5708	0	0	-0.152735	-0.160771	0.0646211	0.441836	1.28715	0	0
8.13	-0.17893	1.56317	-1.81631	0.916353	-0.461152	0.947669	0.227058	-0.270827	0.0556687	0.210247	-0.183497	0	0	-0.142236	-0.10758	-0.101159	0.206692	0.189117	0	0	0.016132	-0.0079873	-0.174938	-0.297197	0.00113692	-0.372101	0.551248	1.5708	0	0	-0.154456	-0.165538	0.0664935	0.441907	1.28454	0	0
8.14	0.30938	1.56451	-2.29721	0.910557	-0.4621	0.946843	0.223251	-0.270513	0.0500313	0.212133	-0.168583	0	0	-0.140911	-0.112284	-0.0963186	0.207321	0.188432	0	0	0.0199526	-0.0117272	-0.17036	-0.29702	-0.00201969	-0.377639	0.551727	1.5708	0	0	-0.157279	-0.170135	0.0668617	0.443261	1.28071	0	0
8.15	0.793328	1.56419	-2.77322	0.904575	-0.462988	0.946045	0.217259	-0.269267	0.0432444	0.212107	-0.151474	0	0	-0.139425	-0.117824	-0.0907283	0.208727	0.187702	0	0	0.0231655	-0.0153887	-0.166328	-0.296993	-0.00517182	-0.381675	0.552405	1.5708	0	0	-0.160539	-0.175124	0.0665311	0.446288	1.27601	0	0
8.16	1.12519	1.56296	-3.0975	0.898401	-0.463797	0.945277	0.210114	-0.266909	0.0338406	0.210792	-0.133688	0	0	-0.137895	-0.123903	-0.0854203	0.211029	0.186601	0	0	0.0260504	-0.0187693	-0.161896	-0.297034	-0.00813615	-0.385537	0.55357	1.5708	0	0	-0.16384	-0.180179	0.0657847	0.450308	1.27068	0	0
8.17	1.33173	1.56143	2.98564	0.891959	-0.464531	0.94456	0.202028	-0.263267	0.02339	0.207901	-0.116274	0	0	-0.136477	-0.130302	-0.0799844	0.213857	0.185278	0	0	0.0286533	-0.0219423	-0.156615	-0.297307	-0.0111067	-0.388618	0.555034	1.5708	0	0	-0.16743	-0.185372	0.0651277	0.455381	1.26442	0	0
8.18	1.50691	1.56006	2.81635	0.885305	-0.465132	0.943893	0.19271	-0.258239	0.0144169	0.201546	-0.100385	0	0	-0.133906	-0.137431	-0.0747588	0.218441	0.183796	0	0	0.0312654	-0.0245654	-0.151016	-0.297742	-0.0140652	-0.389173	0.555879	1.5708	0	0	-0.171191	-0.190586	0.0643824	0.460275	1.25774	0	0
8.19	1.72266	1.55864	2.60694	0.878662	-0.465503	0.943173	0.182432	-0.252251	0.00798401	0.190592	-0.087972	0	0	-0.12894	-0.145531	-0.0692025	0.225067	0.182493	0	0	0.0340896	-0.0265047	-0.14639	-0.297769	-0.0176352	-0.385133	0.556384	1.5708	0	0	-0.177091	-0.198339	0.0773235	0.472816	1.20803	0	0
8.2	1.94591	1.55765	2.38977	0.871981	-0.465565	0.942532	0.171246	-0.244391	0.00232791	0.176503	-0.0799211	0	0	-0.122777	-0.155026	-0.0636883	0.233122	0.181241	0	0	0.0361621	-0.0270396	-0.142031	-0.296243	-0.0215068	-0.379753	0.554906	1.5708	0	0	-0.180422	-0.202547	0.0721527	0.479601	1.20241	0	0
8.21	2.16818	1.55706	2.17202	0.865133	-0.465354	0.942074	0.160549	-0.234857	-0.00275092	0.16233	-0.0742455	0	0	-0.116772	-0.165416	-0.0585574	0.24188	0.178979	0	0	0.0372231	-0.0263262	-0.135439	-0.294512	-0.0248351	-0.376241	0.553699	1.5708	0	0	-0.181816	-0.206101	0.0673491	0.484505	1.19916	0	0
8.22	2.46186	1.5564	1.88067	0.858126	-0.465075	0.941872	0.152157	-0.223265	-0.00672206	0.150079	-0.0702227	0	0	-0.111389	-0.176948	-0.0545639	0.250338	0.175418	0	0	0.0384916	-0.0235469	-0.126931	-0.292659	-0.02866	-0.37328	0.55227	1.5708	0	0	-0.182629	-0.208137	0.0616514	0.488027	1.19672	0	0
8.23	2.81244	1.5548	1.53014	0.85104	-0.46472	0.942049	0.148632	-0.209829	-0.00898416	0.144651	-0.0667849	0	0	-0.106538	-0.189654	-0.0525053	0.258753	0.170468	0	0	0.0397502	-0.018417	-0.116749	-0.290116	-0.033178	-0.370801	0.550124	1.5708	0	0	-0.182813	-0.208522	0.0555757	0.490228	1.19488	0	0
8.24	2.76667	1.51974	1.58068	0.842262	-0.46587	0.940647	0.182562	-0.20231	-0.0134823	0.148343	-0.0609766	0	0	-0.0646671	-0.197293	-0.0426524	0.269044	0.160537	0	0	0.0902989	-0.0253138	-0.112447	-0.297732	-0.0326121	-0.370532	0.53519	1.5708	0	0	-0.200088	-0.211292	0.0436303	0.488465	1.19564	0	0
8.25	-2.85758	1.54627	0.91941	0.837254	-0.463105	0.943618	0.152481	-0.178973	-0.0146902	0.154763	-0.0603665	0	0	-0.0927539	-0.219467	-0.0461635	0.280523	0.156936	0	0	0.0376487	-0.00392807	-0.100904	-0.279477	-0.0429987	-0.362324	0.54436	1.5708	0	0	-0.181326	-0.206311	0.0354249	0.494467	1.19332	0	0
8.26	-2.71242	1.54154	0.775185	0.830414	-0.46237	0.944847	0.154021	-0.164663	-0.0158472	0.160861	-0.0579664	0	0	-0.0866586	-0.232539	-0.0430977	0.290972	0.147428	0	0	0.0354063	0.00227434	-0.0925925	-0.27481	-0.047485	-0.35995	0.541873	1.5708	0	0	-0.181353	-0.205257	0.0279718	0.498882	1.19093	0	0
8.27	-2.67966	1.53748	0.743189	0.823504	-0.461814	0.946076	0.155213	-0.152946	-0.0162708	0.164413	-0.0553832	0	0	-0.0794567	-0.242729	-0.0403795	0.301396	0.136217	0	0	0.0352181	0.00545187	-0.0856995	-0.27064	-0.0516119	-0.355761	0.540095	1.5708	0	0	-0.184887	-0.203769	0.0162924	0.507076	1.18636	0	0
8.28	-2.69321	1.53433	0.759853	0.816754	-0.46124	0.947259	0.153563	-0.143129	-0.0182782	0.162658	-0.0543559	0	0	-0.0697985	-0.251281	-0.0353585	0.313478	0.124576	0	0	0.0354258	0.00610832	-0.0830934	-0.265848	-0.0553622	-0.348208	0.538522	1.5708	0	0	-0.191988	-0.202687	0.00122788	0.521373	1.17564	0	0
8.29	-2.7665	1.52647	0.836895	0.810545	-0.461054	0.948321	0.154637	-0.132306	-0.0201961	0.155635	-0.0579107	0	0	-0.0536655	-0.26041	-0.029794	0.326639	0.11305	0	0	0.0433217	0.00922775	-0.0783713	-0.265521	-0.0600937	-0.343648	0.538842	1.5708	0	0	0.0662349	-0.187836	-0.729428	0	1.5708	0	0
8.3	-2.81519	1.52419	0.890886	0.804099	-0.460406	0.949291	0.150418	-0.125233	-0.0240772	0.148028	-0.058351	0	0	-0.040989	-0.266501	-0.024734	0.34014	0.101397	0	0	0.0443551	0.00760918	-0.0779081	-0.262637	-0.0622044	-0.339246	0.54256	1.5708	0	0	0.0695896	-0.193515	-0.781792	0	1.5708	0	0
8.31	-2.85803	1.52142	0.940177	0.7978	-0.459794	0.950139	0.145132	-0.117995	-0.028706	0.137956	-0.0597068	0	0	-0.0263057	-0.272985	-0.0191786	0.355619	0.0899297	0	0	0.0458726	0.00621806	-0.0781998	-0.261414	-0.0642178	-0.334038	0.550914	1.5708	0	0	0.0691534	-0.196279	-0.80894	0	1.5708	0	0
8.32	-2.87449	1.51835	0.964634	0.791731	-0.459278	0.950906	0.137285	-0.109728	-0.0317464	0.123869	-0.0634701	0	0	-0.0101378	-0.280495	-0.0123244	0.373584	0.0794882	0	0	0.0469931	0.00619722	-0.0769947	-0.265102	-0.0655163	-0.331398	0.56732	1.5708	0	0	0.0653134	-0.192934	-0.789548	0	1.5708	0	0
8.33	-2.90392	1.5169	1.0011	0.785635	-0.458608	0.951562	0.130612	-0.103345	-0.0353892	0.113327	-0.0642931	0	0	0.00518725	-0.286066	-0.00807086	0.391724	0.0686192	0	0	0.0474896	0.00714462	-0.0664333	-0.273148	-0.064019	-0.342222	0.585536	1.5708	0	0	0.0646754	-0.187094	-0.7403	0	1.5708	0	0
8.34	-2.92046	1.51423	1.02388	0.780012	-0.458006	0.952153	0.125431	-0.0964209	-0.0387252	0.103336	-0.0656677	0	0	0.0217774	-0.291978	-0.00592195	0.410944	0.058414	0	0	0.0470303	0.00415028	-0.0750517	-0.265974	-0.0693613	-0.327092	0.588766	1.5708	0	0	0.0624226	-0.191041	-0.791881	0	1.5708	0	0
8.35	-2.9178	1.5133	1.03073	0.774426	-0.457451	0.952632	0.116054	-0.0895239	-0.0422615	0.0909817	-0.0668669	0	0	0.0378898	-0.298247	-0.00376443	0.430979	0.0487102	0	0	0.0456038	0.00645031	-0.0693843	-0.273037	-0.0701207	-0.329515	0.606167	1.5708	0	0	0.0705963	-0.19215	-0.803698	0	1.5708	0	0
8.36	-2.87532	1.5114	0.999101	0.769288	-0.457025	0.953111	0.103632	-0.0800162	-0.041546	0.0735305	-0.0726187	0	0	0.0547627	-0.306842	-0.00320079	0.452252	0.0399948	0	0	0.043265	0.00915389	-0.0713124	-0.27709	-0.0740857	-0.320473	0.622122	1.5708	0	0	0.0712695	-0.189789	-0.798466	0	1.5708	0	0
8.37	-2.85348	1.51182	0.985121	0.764221	-0.456714	0.953702	0.0926073	-0.0734283	-0.0418427	0.06079	-0.0749976	0	0	0.0676753	-0.311881	-0.00624103	0.471515	0.0312019	0	0	0.039737	0.00985798	-0.0697997	-0.279047	-0.0775335	-0.316268	0.632369	1.5708	0	0	0.071462	-0.18622	-0.787297	0	1.5708	0	0
